<svg version="1.1" id="Layer_1" xmlns="http://www.w3.org/2000/svg" xmlns:xlink="http://www.w3.org/1999/xlink" x="0px" y="0px"
	 width="121.08px" height="131.801px" viewBox="0 0 121.08 131.801" enable-background="new 0 0 121.08 131.801"
	 xml:space="preserve">
	<path d="M91.925,24.664c8.02,0,14.884,2.854,20.592,8.562s8.563,12.572,8.563,20.592v30.498
		c0,9.908-3.232,19.557-9.695,28.943c-8.492,12.359-19.839,18.541-34.038,18.541c-14.153,0-25.476-6.182-33.968-18.541
		c-6.464-9.436-9.694-19.082-9.694-28.943V53.819c0-8.02,2.854-14.883,8.562-20.592c5.708-5.709,12.572-8.562,20.593-8.562h10.119
		v-1.203c0-0.613-0.095-1.227-0.283-1.84c-1.132-3.68-5.354-6.77-12.667-9.271c-7.596-2.547-16.417-3.68-26.466-3.396
		c-12.03,0.33-21.702,2.525-29.014,6.582L0,7.893c8.634-4.859,19.744-7.478,33.331-7.855c10.803-0.283,20.71,1.061,29.721,4.033
		c12.502,4.152,18.753,10.615,18.753,19.391v1.203H91.925z M62.84,36.197c-4.812,0-8.964,1.723-12.455,5.166
		c-3.444,3.492-5.165,7.643-5.165,12.456v6.721h27.739V36.197H62.84z M101.831,106.75c5.142-7.455,7.714-14.932,7.714-22.434V69.385
		H45.22v14.932c0,7.502,2.57,14.979,7.713,22.434c6.18,8.963,14.317,13.445,24.414,13.445
		C87.489,120.196,95.65,115.713,101.831,106.75z M109.545,53.819c0-4.813-1.746-8.963-5.236-12.456
		c-3.444-3.443-7.572-5.166-12.384-5.166h-10.12V60.54h27.74V53.819z"/>
</svg>
