<svg version="1.1" id="Layer_1" xmlns="http://www.w3.org/2000/svg" xmlns:xlink="http://www.w3.org/1999/xlink" x="0px" y="0px"
	 width="149px" height="109.637px" viewBox="0 0 149 109.637" enable-background="new 0 0 149 109.637" xml:space="preserve">
	<path d="M149.08,60.875H126.13c2.656,3.823,4.623,7.729,5.896,11.711c1.327,4.197,1.992,8.66,1.992,13.387v23.664
		H15.06V85.973c0-4.727,0.664-9.188,1.992-13.387c1.275-3.982,3.213-7.888,5.816-11.711H0V46.054v-0.637
		c0-12.536,4.622-23.267,13.864-32.19C23.053,4.411,34.075,0,46.931,0h0.876h53.702h0.559c12.908,0,23.956,4.41,33.146,13.227
		C144.403,22.099,149,32.828,149,45.417v0.877h0.08V60.875z M138.242,45.417c0-9.507-3.506-17.636-10.518-24.381
		c-7.119-6.854-15.67-10.278-25.656-10.278h-0.797v0.079H47.807v-0.079h-0.876c-9.987,0.054-18.513,3.479-25.577,10.278
		c-7.012,6.745-10.518,14.875-10.518,24.381v0.877v3.744h19.043v0.957l7.012-10.04c0.903-1.326,1.566-2.603,1.992-3.824
		c0.424-1.328,0.637-2.761,0.637-4.303v-0.876V20.159h30.119v3.903c0.052,0.319,0.106,0.639,0.159,0.956
		c0.16,0.319,0.319,0.611,0.478,0.877c0.956,1.541,2.363,2.312,4.223,2.312c0.159,0,0.345,0,0.558,0
		c0.371-0.053,0.717-0.132,1.036-0.239l0.637-0.159V27.73c0.159-0.105,0.292-0.186,0.398-0.238c1.539-0.902,2.311-2.204,2.311-3.904
		V20.16h30.119v11.793v0.876c0,1.542,0.211,2.975,0.637,4.303c0.371,1.223,1.036,2.498,1.992,3.824l7.012,10.04v-0.957h19.043
		v-3.744V45.417z M123.263,85.973c0-3.611-0.506-6.984-1.514-10.119c-1.011-3.133-2.578-6.215-4.701-9.242l-13.705-19.44
		c-1.543-2.125-2.684-4.409-3.426-6.854c-0.746-2.338-1.117-4.834-1.117-7.49v-0.876h-0.079v-3.665h-9.163l-0.239,0.558
		c-1.274,3.453-3.532,6.109-6.772,7.968c-0.744,0.426-1.514,0.797-2.312,1.115l-0.717,0.238c-1.169,0.373-2.259,0.61-3.267,0.717
		c-0.532,0.055-1.09,0.08-1.673,0.08H74.5c-5.896,0-10.358-2.469-13.386-7.41c-0.531-0.85-0.983-1.753-1.354-2.709l-0.239-0.558
		h-9.243v3.665v0.876c0,2.656-0.373,5.152-1.116,7.49c-0.797,2.392-1.939,4.676-3.426,6.854L32.031,66.612
		c-2.179,3.027-3.745,6.109-4.701,9.242c-1.009,3.135-1.514,6.508-1.514,10.119v12.908h97.447V85.973z M74.5,47.091
		c5.578,0,10.332,1.965,14.262,5.896c3.931,3.933,5.896,8.658,5.896,14.183c0,5.578-1.966,10.332-5.896,14.264
		c-3.933,3.932-8.685,5.896-14.262,5.896c-5.525,0-10.252-1.966-14.183-5.896c-3.932-3.932-5.896-8.686-5.896-14.264
		c0-5.523,1.965-10.25,5.896-14.183C64.247,49.056,68.974,47.091,74.5,47.091z M74.5,76.651c2.602,0,4.833-0.93,6.693-2.789
		c1.859-1.858,2.789-4.09,2.789-6.692s-0.93-4.808-2.789-6.613c-1.859-1.857-4.091-2.789-6.693-2.789
		c-2.604,0-4.808,0.932-6.613,2.789c-1.86,1.807-2.789,4.012-2.789,6.613c0,2.604,0.929,4.834,2.789,6.692
		C69.691,75.721,71.896,76.651,74.5,76.651z"/>
</svg>
